<?xml version="1.0" encoding="UTF-8"?>
<svg xmlns="http://www.w3.org/2000/svg" version="1.1" viewBox="0 0 175.7 209.61">
  <defs>
    <style>
      .cls-1 {
        fill: #FFF;
        stroke: #FFF;
        stroke-miterlimit: 10;
      }
    </style>
  </defs>
  <!-- Generator: Adobe Illustrator 28.6.0, SVG Export Plug-In . SVG Version: 1.2.0 Build 709)  -->
  <g>
    <g id="Layer_1">
      <g>
        <polygon class="cls-1" points="137.93 115.26 137.84 134.89 107.65 153.65 107.74 134.02 137.93 115.26"/>
        <polygon class="cls-1" points="52.33 63.19 37.09 72.66 17.68 84.72 17.58 106.51 17.48 126.68 17.37 148.91 17.27 170.12 17.25 173.76 13.99 172.16 .51 165.52 .61 159.33 .97 136.94 1.3 116.62 1.66 94.67 1.99 73.9 17.78 64.09 35.53 53.06 37.18 54.06 52.33 63.19"/>
        <polygon class="cls-1" points="175.2 50.87 175.1 71.72 175.09 72.05 175 92.23 174.88 92.3 174.87 94.95 174.81 111.92 174.8 113.15 174.89 113.2 174.79 135.05 174.78 136.97 174.69 155.74 160.6 164.5 137.63 178.77 107.44 197.53 88.91 209.04 86.17 207.7 71.44 200.44 71.44 199.27 71.56 176.08 71.65 156.45 71.75 136.27 71.85 115.06 88 104.77 104.2 94.45 110.81 90.24 121.9 83.17 111.54 76.18 95.56 65.4 89.56 61.78 88.78 61.31 72.16 51.29 71.81 51.08 55.01 40.96 54.73 40.79 38.67 31.11 53.57 21.85 54.81 22.6 69.91 31.7 72.25 33.11 86.71 41.82 89.1 43.26 104.46 52.52 108.13 54.73 120.89 62.42 138.14 72.81 138.13 73.87 138.05 91 138.03 95.08 121.9 105.11 107.84 113.84 87.62 126.41 87.26 146.75 86.91 166.54 86.49 189.92 107.54 176.84 137.73 158.08 160.7 143.81 160.77 128.53 160.81 120.62 160.89 104.76 160.9 100.99 160.97 86.57 161 80.81 161.09 64.25 161.09 63.28 158.09 61.47 154.9 59.55 154.89 59.54 139.98 50.56 138.25 49.52 123.55 40.66 115.97 36.09 108.24 31.43 105.8 29.96 101.4 27.31 89.51 20.15 88.99 19.84 72.65 9.99 87.81 .58 89.84 1.75 104.52 10.19 108.33 12.39 121.7 20.08 136.56 28.63 138.35 29.66 139.85 30.53 145.53 33.8 156.65 40.2 161.19 42.81 175.17 50.86 175.2 50.87"/>
        <polygon class="cls-1" points="86.51 83.78 71.96 92.82 54.42 103.72 54.31 125.96 54.21 147.17 54.12 167.35 54.02 186.98 54 191.85 49.63 189.7 36.55 183.26 36.58 178.25 36.67 158.06 36.78 136.85 36.88 114.62 36.98 94.45 54.52 83.55 70.08 73.88 72.05 75.07 86.51 83.78"/>
      </g>
    </g>
  </g>
</svg>